<svg version="1.1" viewBox="0.0 0.0 1358.5721784776904 831.4278215223097" fill="none" stroke="none" stroke-linecap="square" stroke-miterlimit="10" xmlns:xlink="http://www.w3.org/1999/xlink" xmlns="http://www.w3.org/2000/svg"><clipPath id="p.0"><path d="m0 0l1358.5721 0l0 831.4278l-1358.5721 0l0 -831.4278z" clip-rule="nonzero"/></clipPath><g clip-path="url(#p.0)"><path fill="#000000" fill-opacity="0.0" d="m0 0l1358.5721 0l0 831.4278l-1358.5721 0z" fill-rule="evenodd"/><path fill="#3d85c6" d="m182.51213 292.8236l235.59056 0l0 235.59058l-235.59056 0z" fill-rule="evenodd"/><path stroke="#595959" stroke-width="1.0" stroke-linejoin="round" stroke-linecap="butt" d="m182.51213 292.8236l235.59056 0l0 235.59058l-235.59056 0z" fill-rule="evenodd"/><path fill="#000000" d="m227.94803 413.91702l0 -3.859375l9.96875 0l0 9.125q-1.453125 1.40625 -4.21875 2.484375q-2.75 1.0625 -5.578125 1.0625q-3.59375 0 -6.265625 -1.5q-2.671875 -1.515625 -4.015625 -4.3125q-1.34375 -2.8125 -1.34375 -6.109375q0 -3.578125 1.5 -6.359375q1.5 -2.78125 4.390625 -4.265625q2.203125 -1.140625 5.484375 -1.140625q4.265625 0 6.65625 1.796875q2.40625 1.78125 3.09375 4.9375l-4.59375 0.859375q-0.484375 -1.6875 -1.828125 -2.65625q-1.328125 -0.984375 -3.328125 -0.984375q-3.03125 0 -4.828125 1.921875q-1.78125 1.921875 -1.78125 5.703125q0 4.078125 1.8125 6.125q1.8125 2.03125 4.75 2.03125q1.453125 0 2.90625 -0.5625q1.46875 -0.578125 2.515625 -1.390625l0 -2.90625l-5.296875 0zm23.8125 3.140625l4.375 0.734375q-0.84375 2.40625 -2.671875 3.671875q-1.8125 1.25 -4.546875 1.25q-4.328125 0 -6.40625 -2.828125q-1.640625 -2.265625 -1.640625 -5.71875q0 -4.125 2.15625 -6.453125q2.15625 -2.34375 5.453125 -2.34375q3.703125 0 5.84375 2.453125q2.140625 2.4375 2.046875 7.484375l-11.0 0q0.046875 1.953125 1.0625 3.046875q1.015625 1.078125 2.53125 1.078125q1.03125 0 1.734375 -0.5625q0.703125 -0.5625 1.0625 -1.8125zm0.25 -4.4375q-0.046875 -1.90625 -0.984375 -2.890625q-0.9375 -1.0 -2.28125 -1.0q-1.4375 0 -2.375 1.046875q-0.9375 1.046875 -0.921875 2.84375l6.5625 0zm23.03125 9.71875l-4.390625 0l0 -8.46875q0 -2.6875 -0.28125 -3.46875q-0.28125 -0.796875 -0.921875 -1.234375q-0.625 -0.4375 -1.515625 -0.4375q-1.140625 0 -2.046875 0.625q-0.90625 0.625 -1.25 1.65625q-0.328125 1.03125 -0.328125 3.8125l0 7.515625l-4.390625 0l0 -16.59375l4.078125 0l0 2.4375q2.171875 -2.8125 5.46875 -2.8125q1.453125 0 2.65625 0.53125q1.203125 0.515625 1.8125 1.328125q0.625 0.8125 0.859375 1.84375q0.25 1.03125 0.25 2.953125l0 10.3125zm25.140625 0l-5.03125 0l-2.0 -5.203125l-9.15625 0l-1.890625 5.203125l-4.90625 0l8.921875 -22.90625l4.890625 0l9.171875 22.90625zm-8.515625 -9.0625l-3.15625 -8.5l-3.09375 8.5l6.25 0zm10.828125 9.0625l0 -22.90625l4.625 0l0 22.90625l-4.625 0zm16.75 -7.453125l4.5 -0.4375q0.40625 2.265625 1.640625 3.328125q1.25 1.0625 3.359375 1.0625q2.234375 0 3.359375 -0.9375q1.140625 -0.953125 1.140625 -2.21875q0 -0.8125 -0.484375 -1.375q-0.46875 -0.578125 -1.65625 -1.0q-0.8125 -0.28125 -3.703125 -1.0q-3.71875 -0.921875 -5.21875 -2.265625q-2.109375 -1.890625 -2.109375 -4.609375q0 -1.75 0.984375 -3.265625q1.0 -1.53125 2.859375 -2.328125q1.875 -0.796875 4.515625 -0.796875q4.3125 0 6.484375 1.890625q2.1875 1.890625 2.296875 5.046875l-4.625 0.203125q-0.296875 -1.765625 -1.28125 -2.53125q-0.96875 -0.78125 -2.921875 -0.78125q-2.015625 0 -3.15625 0.828125q-0.734375 0.53125 -0.734375 1.421875q0 0.8125 0.6875 1.390625q0.875 0.734375 4.25 1.53125q3.375 0.796875 4.984375 1.65625q1.625 0.84375 2.53125 2.328125q0.921875 1.46875 0.921875 3.640625q0 1.96875 -1.09375 3.6875q-1.09375 1.71875 -3.09375 2.5625q-2.0 0.828125 -4.984375 0.828125q-4.34375 0 -6.671875 -2.0q-2.328125 -2.015625 -2.78125 -5.859375zm22.5 -15.453125l8.453125 0q2.859375 0 4.359375 0.4375q2.015625 0.59375 3.453125 2.109375q1.4375 1.515625 2.1875 3.71875q0.75 2.1875 0.75 5.40625q0 2.828125 -0.703125 4.875q-0.859375 2.5 -2.453125 4.046875q-1.203125 1.171875 -3.25 1.828125q-1.53125 0.484375 -4.09375 0.484375l-8.703125 0l0 -22.90625zm4.625 3.875l0 15.171875l3.453125 0q1.9375 0 2.796875 -0.21875q1.125 -0.28125 1.859375 -0.953125q0.75 -0.671875 1.21875 -2.203125q0.46875 -1.546875 0.46875 -4.203125q0 -2.65625 -0.46875 -4.078125q-0.46875 -1.421875 -1.3125 -2.21875q-0.84375 -0.796875 -2.140625 -1.078125q-0.96875 -0.21875 -3.796875 -0.21875l-2.078125 0zm18.5625 19.03125l0 -22.90625l4.625 0l0 10.171875l9.34375 -10.171875l6.21875 0l-8.625 8.921875l9.09375 13.984375l-5.984375 0l-6.296875 -10.75l-3.75 3.828125l0 6.921875l-4.625 0z" fill-rule="nonzero"/><path fill="#3d85c6" d="m33.25195 28.461943l254.2677 0l0 235.59055l-254.2677 0z" fill-rule="evenodd"/><path stroke="#595959" stroke-width="1.0" stroke-linejoin="round" stroke-linecap="butt" d="m33.25195 28.461943l254.2677 0l0 235.59055l-254.2677 0z" fill-rule="evenodd"/><path fill="#000000" d="m118.19049 157.97722l-5.03125 0l-2.0 -5.203125l-9.15625 0l-1.890625 5.203125l-4.90625 0l8.921875 -22.90625l4.890625 0l9.171875 22.90625zm-8.515625 -9.0625l-3.15625 -8.5l-3.09375 8.5l6.25 0zm10.828125 9.0625l0 -22.90625l4.625 0l0 22.90625l-4.625 0zm37.390625 0l-5.03125 0l-2.0 -5.203125l-9.15625 0l-1.890625 5.203125l-4.90625 0l8.921875 -22.90625l4.890625 0l9.171875 22.90625zm-8.515625 -9.0625l-3.15625 -8.5l-3.09375 8.5l6.25 0zm10.53125 10.15625l5.015625 0.609375q0.125 0.875 0.578125 1.203125q0.625 0.46875 1.96875 0.46875q1.71875 0 2.578125 -0.515625q0.578125 -0.34375 0.875 -1.109375q0.203125 -0.546875 0.203125 -2.015625l0 -2.421875q-1.96875 2.6875 -4.96875 2.6875q-3.34375 0 -5.296875 -2.828125q-1.53125 -2.234375 -1.53125 -5.5625q0 -4.171875 2.0 -6.375q2.015625 -2.203125 5.0 -2.203125q3.078125 0 5.078125 2.703125l0 -2.328125l4.109375 0l0 14.890625q0 2.9375 -0.484375 4.390625q-0.484375 1.453125 -1.359375 2.28125q-0.875 0.828125 -2.34375 1.296875q-1.453125 0.46875 -3.6875 0.46875q-4.21875 0 -5.984375 -1.453125q-1.765625 -1.4375 -1.765625 -3.65625q0 -0.21875 0.015625 -0.53125zm3.921875 -9.734375q0 2.640625 1.015625 3.875q1.03125 1.21875 2.53125 1.21875q1.609375 0 2.71875 -1.25q1.109375 -1.265625 1.109375 -3.734375q0 -2.578125 -1.0625 -3.828125q-1.0625 -1.25 -2.6875 -1.25q-1.578125 0 -2.609375 1.234375q-1.015625 1.21875 -1.015625 3.734375zm25.640625 3.359375l4.375 0.734375q-0.84375 2.40625 -2.671875 3.671875q-1.8125 1.25 -4.546875 1.25q-4.328125 0 -6.40625 -2.828125q-1.640625 -2.265625 -1.640625 -5.71875q0 -4.125 2.15625 -6.453125q2.15625 -2.34375 5.453125 -2.34375q3.703125 0 5.84375 2.453125q2.140625 2.4375 2.046875 7.484375l-11.0 0q0.046875 1.953125 1.0625 3.046875q1.015625 1.078125 2.53125 1.078125q1.03125 0 1.734375 -0.5625q0.703125 -0.5625 1.0625 -1.8125zm0.25 -4.4375q-0.046875 -1.90625 -0.984375 -2.890625q-0.9375 -1.0 -2.28125 -1.0q-1.4375 0 -2.375 1.046875q-0.9375 1.046875 -0.921875 2.84375l6.5625 0zm23.03125 9.71875l-4.390625 0l0 -8.46875q0 -2.6875 -0.28125 -3.46875q-0.28125 -0.796875 -0.921875 -1.234375q-0.625 -0.4375 -1.515625 -0.4375q-1.140625 0 -2.046875 0.625q-0.90625 0.625 -1.25 1.65625q-0.328125 1.03125 -0.328125 3.8125l0 7.515625l-4.390625 0l0 -16.59375l4.078125 0l0 2.4375q2.171875 -2.8125 5.46875 -2.8125q1.453125 0 2.65625 0.53125q1.203125 0.515625 1.8125 1.328125q0.625 0.8125 0.859375 1.84375q0.25 1.03125 0.25 2.953125l0 10.3125zm12.0625 -16.59375l0 3.5l-3.0 0l0 6.6875q0 2.03125 0.078125 2.375q0.09375 0.328125 0.390625 0.546875q0.3125 0.21875 0.75 0.21875q0.609375 0 1.765625 -0.421875l0.375 3.40625q-1.53125 0.65625 -3.46875 0.65625q-1.1875 0 -2.140625 -0.390625q-0.953125 -0.40625 -1.40625 -1.03125q-0.4375 -0.640625 -0.609375 -1.71875q-0.140625 -0.765625 -0.140625 -3.09375l0 -7.234375l-2.015625 0l0 -3.5l2.015625 0l0 -3.296875l4.40625 -2.5625l0 5.859375l3.0 0z" fill-rule="nonzero"/><path fill="#93c47d" d="m570.24243 28.461943l235.59052 0l0 764.2835l-235.59052 0z" fill-rule="evenodd"/><path stroke="#595959" stroke-width="1.0" stroke-linejoin="round" stroke-linecap="butt" d="m570.24243 28.461943l235.59052 0l0 764.2835l-235.59052 0z" fill-rule="evenodd"/><path fill="#000000" d="m641.9205 413.9018l4.484375 1.421875q-1.03125 3.75 -3.4375 5.578125q-2.390625 1.8125 -6.078125 1.8125q-4.5625 0 -7.5 -3.109375q-2.9375 -3.125 -2.9375 -8.53125q0 -5.71875 2.953125 -8.875q2.953125 -3.171875 7.765625 -3.171875q4.203125 0 6.828125 2.484375q1.5625 1.46875 2.34375 4.21875l-4.578125 1.09375q-0.40625 -1.78125 -1.703125 -2.8125q-1.28125 -1.03125 -3.125 -1.03125q-2.546875 0 -4.140625 1.828125q-1.578125 1.828125 -1.578125 5.921875q0 4.34375 1.5625 6.1875q1.5625 1.84375 4.0625 1.84375q1.84375 0 3.171875 -1.171875q1.328125 -1.171875 1.90625 -3.6875zm29.109375 8.421875l-5.03125 0l-2.0 -5.203125l-9.15625 0l-1.890625 5.203125l-4.90625 0l8.921875 -22.90625l4.890625 0l9.171875 22.90625zm-8.515625 -9.0625l-3.15625 -8.5l-3.09375 8.5l6.25 0zm13.75 9.0625l0 -19.03125l-6.796875 0l0 -3.875l18.203125 0l0 3.875l-6.78125 0l0 19.03125l-4.625 0zm32.671875 0l-5.03125 0l-2.0 -5.203125l-9.15625 0l-1.890625 5.203125l-4.90625 0l8.921875 -22.90625l4.890625 0l9.171875 22.90625zm-8.515625 -9.0625l-3.15625 -8.5l-3.09375 8.5l6.25 0zm10.96875 9.0625l0 -22.90625l7.421875 0q4.21875 0 5.5 0.34375q1.96875 0.515625 3.296875 2.25q1.328125 1.71875 1.328125 4.453125q0 2.109375 -0.765625 3.546875q-0.765625 1.4375 -1.953125 2.265625q-1.171875 0.8125 -2.390625 1.078125q-1.65625 0.328125 -4.796875 0.328125l-3.015625 0l0 8.640625l-4.625 0zm4.625 -19.03125l0 6.5l2.53125 0q2.734375 0 3.65625 -0.359375q0.921875 -0.359375 1.4375 -1.125q0.53125 -0.765625 0.53125 -1.78125q0 -1.25 -0.734375 -2.0625q-0.734375 -0.8125 -1.859375 -1.015625q-0.828125 -0.15625 -3.328125 -0.15625l-2.234375 0zm35.0 19.03125l-5.03125 0l-2.0 -5.203125l-9.15625 0l-1.890625 5.203125l-4.90625 0l8.921875 -22.90625l4.890625 0l9.171875 22.90625zm-8.515625 -9.0625l-3.15625 -8.5l-3.09375 8.5l6.25 0z" fill-rule="nonzero"/><path fill="#3d85c6" d="m827.6668 28.461943l235.59052 0l0 764.2835l-235.59052 0z" fill-rule="evenodd"/><path stroke="#595959" stroke-width="1.0" stroke-linejoin="round" stroke-linecap="butt" d="m827.6668 28.461943l235.59052 0l0 764.2835l-235.59052 0z" fill-rule="evenodd"/><path fill="#000000" d="m856.509 413.9018l0 -3.859375l9.96875 0l0 9.125q-1.453125 1.40625 -4.21875 2.484375q-2.75 1.0625 -5.578125 1.0625q-3.59375 0 -6.265625 -1.5q-2.671875 -1.515625 -4.015625 -4.3125q-1.34375 -2.8125 -1.34375 -6.109375q0 -3.578125 1.5 -6.359375q1.5 -2.78125 4.390625 -4.265625q2.203125 -1.140625 5.484375 -1.140625q4.265625 0 6.65625 1.796875q2.40625 1.78125 3.09375 4.9375l-4.59375 0.859375q-0.484375 -1.6875 -1.828125 -2.65625q-1.328125 -0.984375 -3.328125 -0.984375q-3.03125 0 -4.828125 1.921875q-1.78125 1.921875 -1.78125 5.703125q0 4.078125 1.8125 6.125q1.8125 2.03125 4.75 2.03125q1.453125 0 2.90625 -0.5625q1.46875 -0.578125 2.515625 -1.390625l0 -2.90625l-5.296875 0zm14.359375 8.421875l0 -22.71875l4.625 0l0 18.859375l11.5 0l0 3.859375l-16.125 0zm40.078125 0l-5.03125 0l-2.0 -5.203125l-9.15625 0l-1.890625 5.203125l-4.90625 0l8.921875 -22.90625l4.890625 0l9.171875 22.90625zm-8.515625 -9.0625l-3.15625 -8.5l-3.09375 8.5l6.25 0zm10.828125 9.0625l0 -22.90625l4.625 0l0 22.90625l-4.625 0zm9.046875 0l0 -22.90625l9.734375 0q3.671875 0 5.328125 0.625q1.671875 0.609375 2.671875 2.1875q1.0 1.578125 1.0 3.609375q0 2.578125 -1.515625 4.265625q-1.515625 1.671875 -4.53125 2.109375q1.5 0.875 2.46875 1.921875q0.984375 1.046875 2.640625 3.71875l2.796875 4.46875l-5.53125 0l-3.34375 -4.984375q-1.78125 -2.671875 -2.4375 -3.359375q-0.65625 -0.703125 -1.390625 -0.953125q-0.734375 -0.265625 -2.328125 -0.265625l-0.9375 0l0 9.5625l-4.625 0zm4.625 -13.21875l3.421875 0q3.328125 0 4.15625 -0.28125q0.828125 -0.28125 1.296875 -0.96875q0.46875 -0.6875 0.46875 -1.71875q0 -1.15625 -0.625 -1.859375q-0.609375 -0.71875 -1.734375 -0.90625q-0.5625 -0.078125 -3.375 -0.078125l-3.609375 0l0 5.8125zm33.203125 13.21875l-8.1875 -22.90625l5.015625 0l5.796875 16.953125l5.609375 -16.953125l4.90625 0l-8.203125 22.90625l-4.9375 0zm14.890625 -18.84375l0 -4.0625l4.390625 0l0 4.0625l-4.390625 0zm0 18.84375l0 -16.59375l4.390625 0l0 16.59375l-4.390625 0zm7.34375 -4.734375l4.40625 -0.671875q0.28125 1.28125 1.140625 1.953125q0.859375 0.65625 2.40625 0.65625q1.703125 0 2.5625 -0.625q0.578125 -0.4375 0.578125 -1.171875q0 -0.5 -0.3125 -0.828125q-0.328125 -0.3125 -1.46875 -0.578125q-5.3125 -1.171875 -6.734375 -2.140625q-1.96875 -1.34375 -1.96875 -3.734375q0 -2.15625 1.703125 -3.625q1.703125 -1.46875 5.28125 -1.46875q3.40625 0 5.0625 1.109375q1.65625 1.109375 2.28125 3.28125l-4.140625 0.765625q-0.265625 -0.96875 -1.015625 -1.484375q-0.734375 -0.515625 -2.109375 -0.515625q-1.734375 0 -2.484375 0.484375q-0.5 0.34375 -0.5 0.890625q0 0.46875 0.4375 0.796875q0.59375 0.4375 4.09375 1.234375q3.515625 0.796875 4.90625 1.953125q1.375 1.171875 1.375 3.265625q0 2.28125 -1.90625 3.921875q-1.90625 1.640625 -5.640625 1.640625q-3.390625 0 -5.375 -1.375q-1.96875 -1.375 -2.578125 -3.734375zm19.34375 -14.109375l0 -4.0625l4.390625 0l0 4.0625l-4.390625 0zm0 18.84375l0 -16.59375l4.390625 0l0 16.59375l-4.390625 0zm7.875 -8.53125q0 -2.1875 1.078125 -4.234375q1.078125 -2.046875 3.046875 -3.125q1.984375 -1.078125 4.421875 -1.078125q3.765625 0 6.171814 2.453125q2.40625 2.4375 2.40625 6.171875q0 3.765625 -2.4375 6.25q-2.421814 2.46875 -6.109314 2.46875q-2.28125 0 -4.359375 -1.03125q-2.0625 -1.03125 -3.140625 -3.015625q-1.078125 -2.0 -1.078125 -4.859375zm4.5 0.234375q0 2.46875 1.171875 3.78125q1.171875 1.3125 2.890625 1.3125q1.71875 0 2.875 -1.3125q1.171875 -1.3125 1.171875 -3.8125q0 -2.4375 -1.171875 -3.75q-1.15625 -1.3125 -2.875 -1.3125q-1.71875 0 -2.890625 1.3125q-1.171875 1.3125 -1.171875 3.78125zm31.156189 8.296875l-4.390625 0l0 -8.46875q0 -2.6875 -0.28125 -3.46875q-0.28125 -0.796875 -0.921875 -1.234375q-0.625 -0.4375 -1.515625 -0.4375q-1.140625 0 -2.046875 0.625q-0.90625 0.625 -1.25 1.65625q-0.328125 1.03125 -0.328125 3.8125l0 7.515625l-4.390625 0l0 -16.59375l4.078125 0l0 2.4375q2.171875 -2.8125 5.46875 -2.8125q1.453125 0 2.65625 0.53125q1.203125 0.515625 1.8125 1.328125q0.625 0.8125 0.859375 1.84375q0.25 1.03125 0.25 2.953125l0 10.3125z" fill-rule="nonzero"/><path fill="#8e7cc3" d="m1084.4218 28.461943l235.59058 0l0 764.2835l-235.59058 0z" fill-rule="evenodd"/><path stroke="#595959" stroke-width="1.0" stroke-linejoin="round" stroke-linecap="butt" d="m1084.4218 28.461943l235.59058 0l0 764.2835l-235.59058 0z" fill-rule="evenodd"/><path fill="#000000" d="m1148.4827 422.32367l0 -3.421875l6.21875 -7.140625q1.53125 -1.75 2.265625 -2.484375q-0.765625 0.046875 -2.015625 0.0625l-5.859375 0.03125l0 -3.640625l13.71875 0l0 3.109375l-6.34375 7.3125l-2.234375 2.421875q1.828125 -0.109375 2.265625 -0.109375l6.796875 0l0 3.859375l-14.8125 0zm17.609375 0l0 -22.90625l4.390625 0l0 12.15625l5.140625 -5.84375l5.40625 0l-5.671875 6.0625l6.078125 10.53125l-4.734375 0l-4.171875 -7.453125l-2.046875 2.140625l0 5.3125l-4.390625 0zm17.984375 0l0 -22.90625l7.421875 0q4.21875 0 5.5 0.34375q1.96875 0.515625 3.296875 2.25q1.328125 1.71875 1.328125 4.453125q0 2.109375 -0.765625 3.546875q-0.765625 1.4375 -1.953125 2.265625q-1.171875 0.8125 -2.390625 1.078125q-1.65625 0.328125 -4.796875 0.328125l-3.015625 0l0 8.640625l-4.625 0zm4.625 -19.03125l0 6.5l2.53125 0q2.734375 0 3.65625 -0.359375q0.921875 -0.359375 1.4375 -1.125q0.53125 -0.765625 0.53125 -1.78125q0 -1.25 -0.734375 -2.0625q-0.734375 -0.8125 -1.859375 -1.015625q-0.828125 -0.15625 -3.328125 -0.15625l-2.234375 0zm19.96875 7.5l-3.984375 -0.71875q0.671875 -2.40625 2.3125 -3.5625q1.640625 -1.15625 4.875 -1.15625q2.9375 0 4.375 0.703125q1.4375 0.6875 2.015625 1.765625q0.59375 1.0625 0.59375 3.921875l-0.046875 5.125q0 2.1875 0.203125 3.234375q0.21875 1.03125 0.796875 2.21875l-4.34375 0q-0.171875 -0.4375 -0.421875 -1.296875q-0.109375 -0.390625 -0.15625 -0.515625q-1.125 1.09375 -2.40625 1.640625q-1.28125 0.546875 -2.734375 0.546875q-2.5625 0 -4.046875 -1.390625q-1.46875 -1.390625 -1.46875 -3.515625q0 -1.40625 0.671875 -2.5q0.671875 -1.109375 1.875 -1.6875q1.21875 -0.59375 3.5 -1.03125q3.078125 -0.578125 4.265625 -1.078125l0 -0.4375q0 -1.265625 -0.625 -1.796875q-0.625 -0.546875 -2.359375 -0.546875q-1.171875 0 -1.828125 0.46875q-0.65625 0.453125 -1.0625 1.609375zm5.875 3.5625q-0.84375 0.28125 -2.671875 0.671875q-1.828125 0.390625 -2.390625 0.765625q-0.859375 0.609375 -0.859375 1.546875q0 0.921875 0.6875 1.59375q0.6875 0.671875 1.75 0.671875q1.1875 0 2.265625 -0.78125q0.796875 -0.59375 1.046875 -1.453125q0.171875 -0.5625 0.171875 -2.140625l0 -0.875zm7.09375 3.234375l4.40625 -0.671875q0.28125 1.28125 1.140625 1.953125q0.859375 0.65625 2.40625 0.65625q1.703125 0 2.5625 -0.625q0.578125 -0.4375 0.578125 -1.171875q0 -0.5 -0.3125 -0.828125q-0.328125 -0.3125 -1.46875 -0.578125q-5.3125 -1.171875 -6.734375 -2.140625q-1.96875 -1.34375 -1.96875 -3.734375q0 -2.15625 1.703125 -3.625q1.703125 -1.46875 5.28125 -1.46875q3.40625 0 5.0625 1.109375q1.65625 1.109375 2.28125 3.28125l-4.140625 0.765625q-0.265625 -0.96875 -1.015625 -1.484375q-0.734375 -0.515625 -2.109375 -0.515625q-1.734375 0 -2.484375 0.484375q-0.5 0.34375 -0.5 0.890625q0 0.46875 0.4375 0.796875q0.59375 0.4375 4.09375 1.234375q3.515625 0.796875 4.90625 1.953125q1.375 1.171875 1.375 3.265625q0 2.28125 -1.90625 3.921875q-1.90625 1.640625 -5.640625 1.640625q-3.390625 0 -5.375 -1.375q-1.96875 -1.375 -2.578125 -3.734375zm17.796875 0l4.40625 -0.671875q0.28125 1.28125 1.140625 1.953125q0.859375 0.65625 2.40625 0.65625q1.703125 0 2.5625 -0.625q0.578125 -0.4375 0.578125 -1.171875q0 -0.5 -0.3125 -0.828125q-0.328125 -0.3125 -1.46875 -0.578125q-5.3125 -1.171875 -6.734375 -2.140625q-1.96875 -1.34375 -1.96875 -3.734375q0 -2.15625 1.703125 -3.625q1.703125 -1.46875 5.28125 -1.46875q3.40625 0 5.0625 1.109375q1.65625 1.109375 2.28125 3.28125l-4.140625 0.765625q-0.265625 -0.96875 -1.015625 -1.484375q-0.734375 -0.515625 -2.109375 -0.515625q-1.734375 0 -2.484375 0.484375q-0.5 0.34375 -0.5 0.890625q0 0.46875 0.4375 0.796875q0.59375 0.4375 4.09375 1.234375q3.515625 0.796875 4.90625 1.953125q1.375 1.171875 1.375 3.265625q0 2.28125 -1.90625 3.921875q-1.90625 1.640625 -5.640625 1.640625q-3.390625 0 -5.375 -1.375q-1.96875 -1.375 -2.578125 -3.734375z" fill-rule="nonzero"/><path fill="#f1c232" d="m33.24672 557.1853l515.1496 0l0 235.59052l-515.1496 0z" fill-rule="evenodd"/><path stroke="#595959" stroke-width="1.0" stroke-linejoin="round" stroke-linecap="butt" d="m33.24672 557.1853l515.1496 0l0 235.59052l-515.1496 0z" fill-rule="evenodd"/><path fill="#000000" d="m246.9387 663.7943l9.156235 0q2.71875 0 4.046875 0.234375q1.34375 0.21875 2.390625 0.9375q1.0625 0.71875 1.765625 1.921875q0.703125 1.1875 0.703125 2.671875q0 1.609375 -0.875 2.953125q-0.859375 1.34375 -2.34375 2.015625q2.09375 0.609375 3.21875 2.078125q1.125 1.46875 1.125 3.453125q0 1.5625 -0.734375 3.046875q-0.71875 1.46875 -1.984375 2.359375q-1.25 0.875 -3.09375 1.078125q-1.15625 0.125 -5.5781097 0.15625l-7.796875 0l0 -22.90625zm4.625 3.8125l0 5.296875l3.03125 0q2.7031097 0 3.3593597 -0.078125q1.1875 -0.140625 1.859375 -0.8125q0.6875 -0.6875 0.6875 -1.796875q0 -1.0625 -0.59375 -1.71875q-0.578125 -0.671875 -1.734375 -0.8125q-0.6875 -0.078125 -3.9531097 -0.078125l-2.65625 0zm0 9.109375l0 6.125l4.28125 0q2.4999847 0 3.1718597 -0.140625q1.03125 -0.1875 1.671875 -0.90625q0.65625 -0.734375 0.65625 -1.953125q0 -1.03125 -0.5 -1.75q-0.5 -0.71875 -1.453125 -1.046875q-0.9375 -0.328125 -4.0937347 -0.328125l-3.734375 0zm17.531235 -1.328125q0 -3.5 1.046875 -5.875q0.78125 -1.75 2.125 -3.140625q1.359375 -1.390625 2.96875 -2.0625q2.140625 -0.90625 4.9375 -0.90625q5.0625 0 8.09375 3.140625q3.046875 3.140625 3.046875 8.734375q0 5.546875 -3.015625 8.6875q-3.015625 3.125 -8.0625 3.125q-5.109375 0 -8.125 -3.109375q-3.015625 -3.125 -3.015625 -8.59375zm4.765625 -0.15625q0 3.890625 1.796875 5.90625q1.796875 2.0 4.5625 2.0q2.765625 0 4.53125 -1.984375q1.78125 -2.0 1.78125 -5.984375q0 -3.9375 -1.734375 -5.875q-1.71875 -1.9375 -4.578125 -1.9375q-2.859375 0 -4.609375 1.96875q-1.75 1.953125 -1.75 5.90625zm19.890625 4.015625l4.5 -0.4375q0.40625 2.265625 1.640625 3.328125q1.25 1.0625 3.359375 1.0625q2.234375 0 3.359375 -0.9375q1.140625 -0.953125 1.140625 -2.21875q0 -0.8125 -0.484375 -1.375q-0.46875 -0.578125 -1.65625 -1.0q-0.8125 -0.28125 -3.703125 -1.0q-3.71875 -0.921875 -5.21875 -2.265625q-2.109375 -1.890625 -2.109375 -4.609375q0 -1.75 0.984375 -3.265625q1.0 -1.53125 2.859375 -2.328125q1.875 -0.796875 4.515625 -0.796875q4.3125 0 6.484375 1.890625q2.1875 1.890625 2.296875 5.046875l-4.625 0.203125q-0.296875 -1.765625 -1.28125 -2.53125q-0.96875 -0.78125 -2.921875 -0.78125q-2.015625 0 -3.15625 0.828125q-0.734375 0.53125 -0.734375 1.421875q0 0.8125 0.6875 1.390625q0.875 0.734375 4.25 1.53125q3.375 0.796875 4.984375 1.65625q1.625 0.84375 2.53125 2.328125q0.921875 1.46875 0.921875 3.640625q0 1.96875 -1.09375 3.6875q-1.09375 1.71875 -3.09375 2.5625q-2.0 0.828125 -4.984375 0.828125q-4.34375 0 -6.671875 -2.0q-2.328125 -2.015625 -2.78125 -5.859375zm43.171875 7.453125l-5.03125 0l-2.0 -5.203125l-9.15625 0l-1.890625 5.203125l-4.90625 0l8.921875 -22.90625l4.890625 0l9.171875 22.90625zm-8.515625 -9.0625l-3.15625 -8.5l-3.09375 8.5l6.25 0z" fill-rule="nonzero"/><path fill="#f1c232" d="m311.4322 28.461943l235.59058 0l0 235.59055l-235.59058 0z" fill-rule="evenodd"/><path stroke="#595959" stroke-width="1.0" stroke-linejoin="round" stroke-linecap="butt" d="m311.4322 28.461943l235.59058 0l0 235.59055l-235.59058 0z" fill-rule="evenodd"/><path fill="#000000" d="m327.21967 150.5241l4.5 -0.4375q0.40625 2.265625 1.640625 3.328125q1.25 1.0625 3.359375 1.0625q2.234375 0 3.359375 -0.9375q1.140625 -0.953125 1.140625 -2.21875q0 -0.8125 -0.484375 -1.375q-0.46875 -0.578125 -1.65625 -1.0q-0.8125 -0.28125 -3.703125 -1.0q-3.71875 -0.921875 -5.21875 -2.265625q-2.109375 -1.890625 -2.109375 -4.609375q0 -1.75 0.984375 -3.265625q1.0 -1.53125 2.859375 -2.328125q1.875 -0.796875 4.515625 -0.796875q4.3125 0 6.484375 1.890625q2.1875 1.890625 2.296875 5.046875l-4.625 0.203125q-0.296875 -1.765625 -1.28125 -2.53125q-0.96875 -0.78125 -2.921875 -0.78125q-2.015625 0 -3.15625 0.828125q-0.734375 0.53125 -0.734375 1.421875q0 0.8125 0.6875 1.390625q0.875 0.734375 4.25 1.53125q3.375 0.796875 4.984375 1.65625q1.625 0.84375 2.53125 2.328125q0.921875 1.46875 0.921875 3.640625q0 1.96875 -1.09375 3.6875q-1.09375 1.71875 -3.09375 2.5625q-2.0 0.828125 -4.984375 0.828125q-4.34375 0 -6.671875 -2.0q-2.328125 -2.015625 -2.78125 -5.859375zm22.15625 -9.140625l4.046875 0l0 2.265625q2.171875 -2.640625 5.171875 -2.640625q1.59375 0 2.765625 0.65625q1.171875 0.65625 1.921875 1.984375q1.09375 -1.328125 2.359375 -1.984375q1.265625 -0.65625 2.703125 -0.65625q1.828125 0 3.09375 0.75q1.265625 0.734375 1.890625 2.171875q0.453125 1.0625 0.453125 3.4375l0 10.609375l-4.390625 0l0 -9.484375q0 -2.46875 -0.453125 -3.1875q-0.609375 -0.9375 -1.875 -0.9375q-0.921875 0 -1.734375 0.5625q-0.8125 0.5625 -1.171875 1.65625q-0.359375 1.078125 -0.359375 3.421875l0 7.96875l-4.390625 0l0 -9.09375q0 -2.421875 -0.234375 -3.125q-0.234375 -0.703125 -0.734375 -1.046875q-0.484375 -0.34375 -1.328125 -0.34375q-1.015625 0 -1.828125 0.546875q-0.8125 0.546875 -1.171875 1.578125q-0.34375 1.03125 -0.34375 3.421875l0 8.0625l-4.390625 0l0 -16.59375zm32.0625 5.0625l-3.984375 -0.71875q0.671875 -2.40625 2.3125 -3.5625q1.640625 -1.15625 4.875 -1.15625q2.9375 0 4.375 0.703125q1.4375 0.6875 2.015625 1.765625q0.59375 1.0625 0.59375 3.921875l-0.046875 5.125q0 2.1875 0.203125 3.234375q0.21875 1.03125 0.796875 2.21875l-4.34375 0q-0.171875 -0.4375 -0.421875 -1.296875q-0.109375 -0.390625 -0.15625 -0.515625q-1.125 1.09375 -2.40625 1.640625q-1.28125 0.546875 -2.734375 0.546875q-2.5625 0 -4.046875 -1.390625q-1.46875 -1.390625 -1.46875 -3.515625q0 -1.40625 0.671875 -2.5q0.671875 -1.109375 1.875 -1.6875q1.21875 -0.59375 3.5 -1.03125q3.078125 -0.578125 4.265625 -1.078125l0 -0.4375q0 -1.265625 -0.625 -1.796875q-0.625 -0.546875 -2.359375 -0.546875q-1.171875 0 -1.828125 0.46875q-0.65625 0.453125 -1.0625 1.609375zm5.875 3.5625q-0.84375 0.28125 -2.671875 0.671875q-1.828125 0.390625 -2.390625 0.765625q-0.859375 0.609375 -0.859375 1.546875q0 0.921875 0.6875 1.59375q0.6875 0.671875 1.75 0.671875q1.1875 0 2.265625 -0.78125q0.796875 -0.59375 1.046875 -1.453125q0.171875 -0.5625 0.171875 -2.140625l0 -0.875zm12.84375 7.96875l-4.390625 0l0 -16.59375l4.078125 0l0 2.359375q1.046875 -1.671875 1.875 -2.203125q0.84375 -0.53125 1.90625 -0.53125q1.5 0 2.890625 0.828125l-1.359375 3.828125q-1.109375 -0.71875 -2.0625 -0.71875q-0.921875 0 -1.5625 0.515625q-0.640625 0.5 -1.015625 1.828125q-0.359375 1.328125 -0.359375 5.5625l0 5.125zm15.859375 -16.59375l0 3.5l-3.0 0l0 6.6875q0 2.03125 0.078125 2.375q0.09375 0.328125 0.390625 0.546875q0.3125 0.21875 0.75 0.21875q0.609375 0 1.765625 -0.421875l0.375 3.40625q-1.53125 0.65625 -3.46875 0.65625q-1.1875 0 -2.140625 -0.390625q-0.953125 -0.40625 -1.40625 -1.03125q-0.4375 -0.640625 -0.609375 -1.71875q-0.140625 -0.765625 -0.140625 -3.09375l0 -7.234375l-2.015625 0l0 -3.5l2.015625 0l0 -3.296875l4.40625 -2.5625l0 5.859375l3.0 0zm10.796875 9.140625l4.5 -0.4375q0.40625 2.265625 1.640625 3.328125q1.25 1.0625 3.359375 1.0625q2.234375 0 3.359375 -0.9375q1.140625 -0.953125 1.140625 -2.21875q0 -0.8125 -0.484375 -1.375q-0.46875 -0.578125 -1.65625 -1.0q-0.8125 -0.28125 -3.703125 -1.0q-3.71875 -0.921875 -5.21875 -2.265625q-2.109375 -1.890625 -2.109375 -4.609375q0 -1.75 0.984375 -3.265625q1.0 -1.53125 2.859375 -2.328125q1.875 -0.796875 4.515625 -0.796875q4.3125 0 6.484375 1.890625q2.1875 1.890625 2.296875 5.046875l-4.625 0.203125q-0.296875 -1.765625 -1.28125 -2.53125q-0.96875 -0.78125 -2.921875 -0.78125q-2.015625 0 -3.15625 0.828125q-0.734375 0.53125 -0.734375 1.421875q0 0.8125 0.6875 1.390625q0.875 0.734375 4.25 1.53125q3.375 0.796875 4.984375 1.65625q1.625 0.84375 2.53125 2.328125q0.921875 1.46875 0.921875 3.640625q0 1.96875 -1.09375 3.6875q-1.09375 1.71875 -3.09375 2.5625q-2.0 0.828125 -4.984375 0.828125q-4.34375 0 -6.671875 -2.0q-2.328125 -2.015625 -2.78125 -5.859375zm32.09375 2.171875l4.375 0.734375q-0.84375 2.40625 -2.671875 3.671875q-1.8125 1.25 -4.546875 1.25q-4.328125 0 -6.40625 -2.828125q-1.640625 -2.265625 -1.640625 -5.71875q0 -4.125 2.15625 -6.453125q2.15625 -2.34375 5.453125 -2.34375q3.703125 0 5.84375 2.453125q2.140625 2.4375 2.046875 7.484375l-11.0 0q0.046875 1.953125 1.0625 3.046875q1.015625 1.078125 2.53125 1.078125q1.03125 0 1.734375 -0.5625q0.703125 -0.5625 1.0625 -1.8125zm0.25 -4.4375q-0.046875 -1.90625 -0.984375 -2.890625q-0.9375 -1.0 -2.28125 -1.0q-1.4375 0 -2.375 1.046875q-0.9375 1.046875 -0.921875 2.84375l6.5625 0zm11.21875 -1.8125l-3.984375 -0.71875q0.671875 -2.40625 2.3125 -3.5625q1.640625 -1.15625 4.875 -1.15625q2.9375 0 4.375 0.703125q1.4375 0.6875 2.015625 1.765625q0.59375 1.0625 0.59375 3.921875l-0.046875 5.125q0 2.1875 0.203125 3.234375q0.21875 1.03125 0.796875 2.21875l-4.34375 0q-0.171875 -0.4375 -0.421875 -1.296875q-0.109375 -0.390625 -0.15625 -0.515625q-1.125 1.09375 -2.40625 1.640625q-1.28125 0.546875 -2.734375 0.546875q-2.5625 0 -4.046875 -1.390625q-1.46875 -1.390625 -1.46875 -3.515625q0 -1.40625 0.671875 -2.5q0.671875 -1.109375 1.875 -1.6875q1.21875 -0.59375 3.5 -1.03125q3.078125 -0.578125 4.265625 -1.078125l0 -0.4375q0 -1.265625 -0.625 -1.796875q-0.625 -0.546875 -2.359375 -0.546875q-1.171875 0 -1.828125 0.46875q-0.65625 0.453125 -1.0625 1.609375zm5.875 3.5625q-0.84375 0.28125 -2.671875 0.671875q-1.828125 0.390625 -2.390625 0.765625q-0.859375 0.609375 -0.859375 1.546875q0 0.921875 0.6875 1.59375q0.6875 0.671875 1.75 0.671875q1.1875 0 2.265625 -0.78125q0.796875 -0.59375 1.046875 -1.453125q0.171875 -0.5625 0.171875 -2.140625l0 -0.875zm12.84375 7.96875l-4.390625 0l0 -16.59375l4.078125 0l0 2.359375q1.046875 -1.671875 1.875 -2.203125q0.84375 -0.53125 1.90625 -0.53125q1.5 0 2.890625 0.828125l-1.359375 3.828125q-1.109375 -0.71875 -2.0625 -0.71875q-0.921875 0 -1.5625 0.515625q-0.640625 0.5 -1.015625 1.828125q-0.359375 1.328125 -0.359375 5.5625l0 5.125zm22.71875 -11.6875l-4.328125 0.78125q-0.21875 -1.296875 -1.0 -1.953125q-0.765625 -0.65625 -2.0 -0.65625q-1.640625 0 -2.625 1.140625q-0.96875 1.125 -0.96875 3.78125q0 2.953125 0.984375 4.171875q1.0 1.21875 2.671875 1.21875q1.25 0 2.046875 -0.703125q0.796875 -0.71875 1.125 -2.453125l4.3125 0.734375q-0.671875 2.96875 -2.578125 4.484375q-1.90625 1.515625 -5.109375 1.515625q-3.640625 0 -5.8125 -2.296875q-2.15625 -2.296875 -2.15625 -6.359375q0 -4.109375 2.171875 -6.390625q2.171875 -2.296875 5.875 -2.296875q3.03125 0 4.8125 1.3125q1.796875 1.296875 2.578125 3.96875zm7.703125 -11.21875l0 8.421875q2.125 -2.484375 5.078125 -2.484375q1.515625 0 2.734375 0.5625q1.21875 0.5625 1.828125 1.4375q0.625 0.875 0.84375 1.9375q0.234375 1.0625 0.234375 3.296875l0 9.734375l-4.390625 0l0 -8.765625q0 -2.609375 -0.25 -3.3125q-0.25 -0.703125 -0.890625 -1.109375q-0.625 -0.421875 -1.578125 -0.421875q-1.09375 0 -1.953125 0.53125q-0.859375 0.53125 -1.265625 1.609375q-0.390625 1.0625 -0.390625 3.15625l0 8.3125l-4.390625 0l0 -22.90625l4.390625 0z" fill-rule="nonzero"/></g></svg>